Coordinates
version=1
nRows=24
nColumns=24
inDegrees=yes

Units are S.I. units (second, meters, Newtons, ...)
Angles are in degrees.

endheader
time	pelvis_tilt	pelvis_list	pelvis_rotation	pelvis_tx	pelvis_ty	pelvis_tz	hip_flexion_r	hip_adduction_r	hip_rotation_r	knee_angle_r	ankle_angle_r	subtalar_angle_r	mtp_angle_r	hip_flexion_l	hip_adduction_l	hip_rotation_l	knee_angle_l	ankle_angle_l	subtalar_angle_l	mtp_angle_l	lumbar_extension	lumbar_bending	lumbar_rotation
      0.70016667	      0.26678885	     -3.84701623	     -3.19800618	     -0.54122150	      1.01135567	      0.31231410	     12.87575132	      6.60310779	     -4.19023996	    -17.74967714	     -0.44693496	    -11.20301861	     -0.42733055	     19.85469901	     -9.64783497	     -9.20411391	    -74.47708450	      0.87671613	    -16.17887795	     -0.44139882	    -14.21157945	      5.83992897	      6.92789953
      0.70433333	      0.30237621	     -3.77045482	     -3.28321860	     -0.53577089	      1.01238609	      0.31262600	     12.34820790	      6.54935886	     -4.05675972	    -17.46541355	     -0.37823153	    -11.19544910	     -0.42028963	     20.43517748	     -9.54393511	     -9.20509814	    -74.30460700	      1.17502144	    -16.13929744	     -0.52231543	    -14.26325653	      5.73859651	      7.03474782
      0.70850000	      0.35734769	     -3.70621029	     -3.36911389	     -0.53026878	      1.01345577	      0.31297593	     11.78085475	      6.50921313	     -3.92354463	    -17.14713445	     -0.31675772	    -11.17905716	     -0.41300811	     20.96637609	     -9.46356989	     -9.22695308	    -74.04098132	      1.44107930	    -16.03572923	     -0.62775397	    -14.32891741	      5.63100494	      7.19691521
      0.71266667	      0.36198971	     -3.65119083	     -3.44382593	     -0.52475826	      1.01439679	      0.31330214	     11.26955723	      6.47862456	     -3.79730895	    -16.83752832	     -0.21317289	    -11.16236975	     -0.41071724	     21.54635712	     -9.38760484	     -9.24178514	    -73.71579369	      1.60132701	    -16.04904421	     -0.65256866	    -14.32023892	      5.54627587	      7.24406251
      0.71683333	      0.57611914	     -3.56818857	     -3.58310110	     -0.51923701	      1.01574661	      0.31381693	     10.50364071	      6.42826679	     -3.56928534	    -16.46039810	     -0.19422580	    -11.19137617	     -0.40648285	     21.81892239	     -9.31404649	     -9.37237909	    -73.25041207	      1.84296968	    -15.88335874	     -0.86641682	    -14.57811954	      5.36966778	      7.56958266
      0.72100000	      0.55755462	     -3.50985245	     -3.65894642	     -0.51370586	      1.01660649	      0.31409044	     10.01464300	      6.38483285	     -3.45759787	    -16.13993431	     -0.13767721	    -11.17363818	     -0.40627120	     22.38131843	     -9.22940193	     -9.41441079	    -72.78097690	      2.02604188	    -15.93514498	     -0.89655585	    -14.54203821	      5.29589604	      7.59989934
      0.72516667	      0.77310719	     -3.39269043	     -3.80510827	     -0.50815856	      1.01794642	      0.31457103	      9.24677802	      6.28762235	     -3.22174080	    -15.75954290	     -0.13165547	    -11.20471368	     -0.41453940	     22.59548353	     -9.10831675	     -9.58452613	    -72.13580741	      2.17797766	    -15.88349596	     -1.11844645	    -14.79336394	      5.08774700	      7.84048567
      0.72933333	      0.87247072	     -3.30592456	     -3.92012956	     -0.50259463	      1.01901104	      0.31497126	      8.61151553	      6.21541278	     -3.04709095	    -15.39694466	     -0.11267425	    -11.20974484	     -0.42938354	     22.94373921	     -9.01182885	     -9.71438482	    -71.46801691	      2.32409402	    -15.88651532	     -1.34707837	    -14.90020121	      4.93219645	      7.97304467
      0.73350000	      0.82184353	     -3.28569184	     -3.97210932	     -0.49707091	      1.01969688	      0.31520360	      8.15015015	      6.20739128	     -2.94399505	    -15.06547686	     -0.02852274	    -11.17499934	     -0.42993540	     23.49048119	     -8.96071851	     -9.74331678	    -70.81096408	      2.47613312	    -15.91793376	     -1.36313701	    -14.83087661	      4.90193322	      7.99936687
      0.73766667	      1.07412463	     -3.15155418	     -4.10917066	     -0.49144990	      1.02103355	      0.31565882	      7.32860308	      6.07201280	     -2.75285517	    -14.65330242	     -0.06249392	    -11.20509288	     -0.45648083	     23.57908275	     -8.81779120	     -9.96046957	    -69.93041387	      2.57331997	    -15.91108970	     -1.54738781	    -15.11016655	      4.65224524	      8.20602022
      0.74183333	      1.18136709	     -3.07020681	     -4.22346030	     -0.48584053	      1.02202199	      0.31603044	      6.67716505	      5.99255056	     -2.59553358	    -14.27632054	     -0.04884908	    -11.18826113	     -0.48557381	     23.83741546	     -8.72590101	    -10.12584452	    -69.04624553	      2.69277051	    -15.90762290	     -1.71982780	    -15.21546769	      4.51147282	      8.33279795
      0.74600000	      1.30422401	     -2.99992505	     -4.33283635	     -0.48023942	      1.02299139	      0.31640332	      6.00370520	      5.92211289	     -2.43759191	    -13.88659378	     -0.03916319	    -11.17803186	     -0.52345913	     24.05643395	     -8.64425856	    -10.29652607	    -68.09861541	      2.79511392	    -15.93437539	     -1.90257449	    -15.34234640	      4.37494271	      8.45824048
      0.75016667	      1.40532551	     -2.92405569	     -4.43300318	     -0.47460064	      1.02388077	      0.31674499	      5.35959419	      5.83971502	     -2.31591914	    -13.51445956	     -0.00904568	    -11.17206029	     -0.56081042	     24.27223931	     -8.55414219	    -10.47159239	    -67.08391130	      2.88989848	    -15.93444859	     -2.05462066	    -15.42938990	      4.23744387	      8.56335324
      0.75433333	      1.53145695	     -2.85787391	     -4.53422789	     -0.46899488	      1.02476871	      0.31709083	      4.68221182	      5.76587824	     -2.16825788	    -13.12207700	      0.00351931	    -11.15417359	     -0.60470577	     24.43610957	     -8.47044167	    -10.64951462	    -66.00490960	      2.97847476	    -15.93495148	     -2.20922162	    -15.56492327	      4.10111875	      8.68474526
      0.75850000	      1.66334778	     -2.79659429	     -4.63459674	     -0.46336576	      1.02561447	      0.31743750	      4.00001812	      5.69347291	     -2.03691648	    -12.73510135	      0.02116868	    -11.13800064	     -0.65174248	     24.56453941	     -8.39573086	    -10.84435794	    -64.86254968	      3.06089874	    -15.92630156	     -2.35771101	    -15.69755952	      3.97211609	      8.79209096
      0.76266667	      1.62281196	     -2.77962999	     -4.68493687	     -0.45774214	      1.02606502	      0.31761609	      3.51936493	      5.66805304	     -1.98541609	    -12.37985693	      0.00219711	    -11.10787950	     -0.66880265	     24.89904526	     -8.34556893	    -10.95002233	    -63.72031734	      3.15189707	    -15.88081807	     -2.40451387	    -15.62414711	      3.93989268	      8.84541104
      0.76683333	      1.87772681	     -2.67933910	     -4.83910873	     -0.45209026	      1.02708348	      0.31809872	      2.70246849	      5.54655094	     -1.79343730	    -11.98857527	      0.08667383	    -11.10442667	     -0.72314440	     24.79231805	     -8.25047178	    -11.26029932	    -62.38909653	      3.19070763	    -15.90924599	     -2.55229807	    -15.89739152	      3.72024396	      8.99007485
      0.77100000	      1.97551338	     -2.63700767	     -4.92533064	     -0.44643404	      1.02771144	      0.31839498	      2.06472970	      5.48645092	     -1.70031762	    -11.61913237	      0.10976705	    -11.11566447	     -0.77734915	     24.88109174	     -8.19064518	    -11.46345535	    -61.07195797	      3.27584974	    -15.84560493	     -2.68382610	    -15.98604560	      3.61393669	      9.11874328
      0.77516667	      2.07459046	     -2.59017403	     -5.02728406	     -0.44081943	      1.02829610	      0.31870482	      1.43174954	      5.42103854	     -1.56424460	    -11.25548777	      0.15014473	    -11.10409810	     -0.83516216	     24.93840828	     -8.12602159	    -11.68451684	    -59.68477242	      3.32330411	    -15.80630347	     -2.81615673	    -16.08431986	      3.50044545	      9.21080111
      0.77933333	      2.01152788	     -2.60402283	     -5.05695316	     -0.43519975	      1.02848708	      0.31882729	      0.98653129	      5.42455660	     -1.53847320	    -10.92366495	      0.14635328	    -11.08824728	     -0.85715300	     25.19712538	     -8.09984057	    -11.79616985	    -58.30977129	      3.37002525	    -15.69823693	     -2.86159020	    -15.98383382	      3.50352632	      9.26736143
      0.78350000	      2.22900021	     -2.54369058	     -5.19550228	     -0.42956921	      1.02919594	      0.31921959	      0.22396369	      5.33279313	     -1.36765075	    -10.55678528	      0.23702792	    -11.08842070	     -0.92210102	     25.03515975	     -8.03373624	    -12.11281285	    -56.76055979	      3.39592760	    -15.68328309	     -2.99460320	    -16.22773993	      3.34279349	      9.38902689
      0.78766667	      2.28492017	     -2.52904919	     -5.27697374	     -0.42394738	      1.02951840	      0.31946467	     -0.34704355	      5.29782704	     -1.27418752	    -10.22857725	      0.29474143	    -11.09634814	     -0.98620070	     25.06776711	     -7.99470836	    -12.33473297	    -55.21602746	      3.43814953	    -15.59455610	     -3.11500121	    -16.27340840	      3.27296830	      9.49839738
      0.79183333	      2.30034527	     -2.52420706	     -5.35022196	     -0.41831103	      1.02971669	      0.31967088	     -0.87001725	      5.27399788	     -1.19854277	     -9.91140688	      0.35644905	    -11.11171772	     -1.04686778	     25.12188455	     -7.96139693	    -12.55255773	    -53.62203477	      3.46083875	    -15.51276262	     -3.22175136	    -16.27215980	      3.22200067	      9.57161414
      0.79600000	      2.31914004	     -2.53443578	     -5.41185641	     -0.41270023	      1.02985172	      0.31982948	     -1.39159016	      5.26354273	     -1.12956241	     -9.60313004	      0.42251781	    -11.12178444	     -1.10654369	     25.15182013	     -7.93344638	    -12.76049499	    -51.97690691	      3.47331529	    -15.40674934	     -3.31750077	    -16.28367116	      3.19519280	      9.64352557
